<svg xmlns="http://www.w3.org/2000/svg" viewBox="0 0 271.03 655.37"><defs><style>.cls-1{fill:#ad2b2b;}.cls-2{fill:#ea7171;}.cls-3,.cls-4{fill:#e03434;}.cls-3{stroke:#e03434;stroke-miterlimit:10;}.cls-5{fill:none;}.cls-6{fill:#912727;}.cls-7{fill:#a03d3d;}.cls-8{fill:#ce4949;}</style></defs><g id="Слой_2" data-name="Слой 2"><g id="Слой_1-2" data-name="Слой 1"><polygon points="20.52 522.95 20.48 522.95 20.48 522.93 20.5 522.94 20.52 522.95"/><polygon points="20.51 502.93 20.5 502.94 20.48 502.95 20.48 502.93 20.51 502.93"/><polygon class="cls-1" points="270.89 566.22 270.89 593.41 142.81 654.58 142.81 627.39 242.43 579.82 270.89 566.22"/><polygon class="cls-2" points="270.89 566.22 242.43 579.82 142.81 627.39 28.96 573.02 0.5 559.43 28.96 546.04 28.96 559.43 43.2 566.22 142.81 613.8 228.2 573.02 242.43 566.22 242.43 552.44 270.89 566.22"/><polygon class="cls-3" points="142.81 627.39 142.81 654.58 0.5 586.61 0.5 559.43 28.96 573.02 142.81 627.39"/><path class="cls-4" d="M29,369.38v190l14.22,6.79,99.62,47.58V423.74Zm79.19,135.5,8.93,8.68-3.15,1.51L67.31,527.29l0,0h0l-12.56-4.5v-72l3.15-1.51,12.56,4.45v34.06l37.76-9.91,8.93,8.69L113.94,488,70.4,499.45v15.33Z"/><polygon class="cls-5" points="108.16 504.88 117.09 513.56 113.94 515.07 67.31 527.29 67.28 527.26 67.25 527.27 54.69 522.77 54.69 450.74 57.84 449.23 70.4 453.68 70.4 487.74 108.16 477.83 117.09 486.52 113.94 488.04 70.4 499.45 70.4 514.78 108.16 504.88"/><path class="cls-1" d="M142.81,423.74V613.8L228.2,573l14.23-6.8V375.88Zm62.75,66.73v37.71L199,531.32l-6.21-2.71V490.92h0l-29.53-18.45,4.65-7.35,6.21,2.7,18.66,11.67V444.86h0l6.57-3.14,6.21,2.71h0V467.7l18.67-29.52,6.21,2.71,4.65,2.91Z"/><polygon class="cls-5" points="235.09 443.8 205.56 490.47 205.56 528.17 198.99 531.32 192.78 528.61 192.78 490.92 192.78 490.92 192.78 490.91 163.25 472.46 167.9 465.11 174.11 467.81 192.77 479.48 192.77 444.86 192.78 444.86 198.98 447.56 199.35 447.39 205.56 444.43 205.56 444.43 205.56 467.7 224.23 438.18 230.44 440.89 235.09 443.8"/><polygon class="cls-2" points="174.11 467.81 173.57 468.66 169.46 475.16 163.25 472.46 167.9 465.11 174.11 467.81"/><polygon class="cls-4" points="198.98 447.56 198.98 483.36 192.77 479.48 192.77 444.86 192.78 444.86 198.98 447.56"/><polygon class="cls-4" points="198.98 493.63 198.99 525.65 198.99 531.32 192.78 528.61 192.78 490.92 198.94 493.6 198.95 493.6 198.98 493.62 199 493.63 198.98 493.63"/><polygon class="cls-4" points="192.78 490.92 192.78 490.92 192.79 490.92 192.8 490.91 192.78 490.92 192.78 490.91 163.25 472.46 169.46 475.16 198.94 493.6 192.78 490.92"/><polygon class="cls-4" points="230.44 440.89 205.56 480.21 205.56 467.7 224.23 438.18 230.44 440.89"/><polygon class="cls-6" points="235.09 443.8 205.56 490.47 205.56 528.17 198.99 531.32 198.99 525.65 198.98 493.63 199 493.63 198.98 493.62 198.95 493.6 198.94 493.6 169.46 475.16 173.57 468.66 174.11 467.81 192.77 479.48 198.98 483.36 198.98 447.56 199.35 447.39 205.56 444.43 205.56 444.43 205.56 480.21 230.44 440.89 235.09 443.8"/><line class="cls-1" x1="199" y1="493.62" x2="198.95" y2="493.6"/><path class="cls-6" d="M70.36,525.75h0v0Zm0-11V499.45l-3.09.81-.06-.06v16.09L105,506.38l3.14-1.5Zm0-27V453.68l-3.15,1.51v34.06L105,479.34l3.14-1.51Z"/><polygon class="cls-6" points="117.09 486.52 113.94 488.04 113.39 487.49 105.02 479.34 108.16 477.83 117.09 486.52"/><polygon class="cls-6" points="117.09 513.56 113.94 515.07 113.39 514.53 113.38 514.53 105.02 506.38 108.16 504.88 117.09 513.56"/><path class="cls-5" d="M70.36,525.75h0v0ZM57.9,467.24h0Zm0,0h0Z"/><path class="cls-2" d="M113.38,514.53,105,506.38l-37.77,9.91V500.2l.06.06,3.09-.81L113.94,488l-.55-.55L105,479.34l-37.77,9.91V455.19l-9.41-3.33-3.15-1.12v72l12.56,4.5v0l0,0,0,0,46.63-12.22-.55-.54ZM54.77,468.75h0Zm3.14-1.51h0ZM70.4,525.76h0l0,0Z"/><line class="cls-5" x1="70.4" y1="487.74" x2="67.25" y2="489.25"/><polyline class="cls-5" points="67.31 500.25 67.25 516.28 70.4 514.78"/><polygon points="20.52 330.62 20.49 330.62 20.49 330.59 20.5 330.61 20.52 330.62"/><polygon points="20.51 310.59 20.5 310.6 20.49 310.61 20.49 310.59 20.51 310.59"/><polygon class="cls-2" points="270.89 373.89 242.43 387.49 142.81 435.06 28.96 380.69 0.5 367.09 28.97 353.7 28.97 367.09 43.2 373.89 142.81 421.47 228.2 380.69 242.44 373.89 242.44 360.11 270.89 373.89"/><path class="cls-4" d="M29,177v190l14.23,6.8,99.62,47.58V231.41Zm79.19,135.5,8.93,8.69-3.15,1.5L67.32,335l0,0,0,0-12.56-4.5v-72l3.15-1.51,12.56,4.44V295.4l37.76-9.9,8.93,8.69-3.15,1.51L70.4,307.11v15.33Z"/><polygon class="cls-5" points="108.16 312.54 117.09 321.23 113.94 322.73 67.31 334.96 67.28 334.92 67.25 334.94 54.69 330.44 54.69 258.41 57.84 256.9 70.4 261.34 70.4 295.4 108.16 285.5 117.09 294.19 113.94 295.7 70.4 307.11 70.4 322.44 108.16 312.54"/><path class="cls-1" d="M142.82,231.41V421.47l85.38-40.78,14.23-6.8V183.54Zm62.74,66.72v37.71L199,339l-6.21-2.7V298.59h0l-29.53-18.46,4.65-7.35,6.21,2.71,18.66,11.67V252.53h0l6.57-3.14,6.21,2.71h0v23.27l18.67-29.51,6.21,2.7,4.65,2.91Z"/><polygon class="cls-5" points="235.09 251.46 205.56 298.13 205.56 335.84 198.99 338.98 192.78 336.27 192.78 298.59 192.79 298.58 192.78 298.58 163.25 280.12 167.9 272.77 174.11 275.48 192.77 287.15 192.77 252.53 192.78 252.52 198.98 255.23 199.35 255.05 205.56 252.09 205.56 252.09 205.56 275.36 224.24 245.85 230.44 248.55 235.09 251.46"/><polygon class="cls-7" points="270.73 156.4 270.56 170.08 256.32 176.87 242.44 183.54 142.81 231.41 142.81 217.49 242.44 169.91 256.32 163.28 270.73 156.4"/><polygon class="cls-2" points="174.11 275.48 173.57 276.32 169.46 282.82 163.25 280.12 167.9 272.77 174.11 275.48"/><polygon class="cls-2" points="205.56 252.09 199.35 255.05 198.98 255.23 192.78 252.52 199.35 249.38 205.56 252.09"/><polygon class="cls-4" points="198.98 255.23 198.98 291.03 192.77 287.15 192.77 252.53 192.78 252.52 198.98 255.23"/><polygon class="cls-4" points="198.98 301.29 198.99 333.31 198.99 338.98 192.78 336.27 192.78 298.59 198.94 301.26 198.95 301.27 198.98 301.29 199 301.29 198.98 301.29"/><polygon class="cls-4" points="192.78 298.59 192.79 298.58 192.79 298.59 192.8 298.58 192.79 298.58 192.78 298.58 163.25 280.12 169.46 282.82 198.94 301.26 192.78 298.59"/><polygon class="cls-4" points="230.44 248.55 205.56 287.88 205.56 275.36 224.24 245.85 230.44 248.55"/><polygon class="cls-6" points="235.09 251.46 205.56 298.13 205.56 335.84 198.99 338.98 198.99 333.31 198.98 301.29 199 301.29 198.98 301.29 198.95 301.27 198.94 301.26 169.46 282.82 173.57 276.32 174.11 275.48 192.77 287.15 198.98 291.03 198.98 255.23 199.35 255.05 205.56 252.09 205.56 252.09 205.56 287.88 230.44 248.55 235.09 251.46"/><line class="cls-1" x1="199" y1="301.29" x2="198.95" y2="301.26"/><path class="cls-6" d="M70.36,333.41l0,0v0Zm0-11V307.11l-3.08.81-.07-.06V324l37.77-9.9,3.14-1.51Zm0-27V261.34l-3.15,1.51v34.06L105,287l3.14-1.51Z"/><polygon class="cls-6" points="117.09 294.19 113.94 295.7 113.39 295.16 105.02 287.01 108.16 285.5 117.09 294.19"/><polygon class="cls-6" points="117.09 321.23 113.94 322.73 113.39 322.2 113.38 322.19 105.02 314.05 108.16 312.54 117.09 321.23"/><path class="cls-5" d="M70.36,333.41l0,0v0ZM57.9,274.9h0Zm0,0Z"/><path class="cls-2" d="M113.38,322.19,105,314.05,67.25,324V307.86l.07.06,3.08-.81,43.54-11.41-.55-.54L105,287l-37.77,9.9V262.85l-9.41-3.33-3.15-1.11v72l12.56,4.5v0l0,0,0,0,46.62-12.23-.55-.53ZM54.77,276.42h0Zm3.15-1.52h0ZM70.4,333.43l0,0,0,0Z"/><polygon class="cls-6" points="70.4 261.34 67.25 262.85 57.84 259.52 54.69 258.41 57.84 256.9 70.4 261.34"/><line class="cls-5" x1="70.4" y1="295.4" x2="67.25" y2="296.91"/><polyline class="cls-5" points="67.31 307.92 67.25 323.95 70.4 322.44"/><polygon class="cls-4" points="142.81 41.11 142.81 203.97 28.97 149.6 39.13 131.07 99.78 20.55 142.81 41.11"/><polygon class="cls-2" points="185.16 20.55 142.81 41.11 99.78 20.55 142.81 0 185.16 20.55"/><polygon class="cls-1" points="242.44 156.4 142.81 203.97 142.81 41.11 185.16 20.55 235.39 139.69 242.44 156.4"/><polygon class="cls-2" points="270.73 156.4 256.32 163.28 242.44 169.91 142.81 217.49 142.48 217.65 28.97 163.29 14.57 156.4 0.16 149.69 39.13 131.07 28.97 149.6 142.81 203.97 242.44 156.4 235.39 139.69 270.73 156.4"/><polygon class="cls-8" points="142.81 217.49 142.81 231.41 28.97 177.04 14.57 170.16 0.16 163.28 0.16 149.69 14.57 156.4 28.97 163.29 142.48 217.65 142.81 217.49"/><line class="cls-5" x1="205.56" y1="252.09" x2="205.56" y2="252.09"/><polygon class="cls-2" points="205.56 444.4 199.35 447.36 198.99 447.54 192.78 444.83 199.35 441.69 205.56 444.4"/><polygon class="cls-6" points="70.4 453.68 67.25 455.19 57.84 451.86 54.69 450.74 57.84 449.23 70.4 453.68"/><polygon class="cls-7" points="271.03 373.82 270.86 387.5 256.62 394.29 242.74 400.97 143.12 448.83 143.12 434.92 242.74 387.33 256.62 380.7 271.03 373.82"/><polygon class="cls-8" points="143.12 434.92 143.12 448.83 29.27 394.46 14.87 387.59 0.46 380.7 0.46 367.11 14.87 373.82 29.27 380.72 142.78 435.07 143.12 434.92"/></g></g></svg>