<svg xmlns="http://www.w3.org/2000/svg" viewBox="0 0 263.99 300"><g id="Слой_2" data-name="Слой 2"><g id="Слой_1-2" data-name="Слой 1"><path d="M132,0A100,100,0,1,0,232,100,100,100,0,0,0,132,0Zm0,185a85,85,0,1,1,85-85A85,85,0,0,1,132,185Z"/><path d="M147,100a85,85,0,0,0,85,85v15A100,100,0,0,1,232,0V15A85,85,0,0,0,147,100Z"/><path d="M117,100a85,85,0,0,1-85,85v15A100,100,0,0,0,32,0V15A85,85,0,0,1,117,100Z"/><rect x="16.99" width="15" height="300" transform="translate(48.99 300) rotate(180)"/><rect x="231.99" width="15" height="300" transform="translate(478.99 300) rotate(180)"/><path d="M17,300V284.6s-5.62,12.1-17,12.1V300Z"/><path d="M32,300V284.6s5.63,12.1,17,12.1V300Z"/><path d="M232,300V284.6s-5.62,12.1-17,12.1V300Z"/><path d="M247,300V284.6s5.63,12.1,17,12.1V300Z"/><path d="M247,0V15.4s5.63-12.1,17-12.1V0Z"/><path d="M17,0V15.4S11.37,3.3,0,3.3V0Z"/></g></g></svg>