<svg xmlns="http://www.w3.org/2000/svg" viewBox="0 0 100 100"><g id="Слой_2" data-name="Слой 2"><g id="Слой_1-2" data-name="Слой 1"><path d="M50,0a50,50,0,1,0,50,50A50,50,0,0,0,50,0ZM5,50A44.79,44.79,0,0,1,9.7,30l34,19.66L9.4,69.44A44.89,44.89,0,0,1,5,50ZM46.47,94.86a45,45,0,0,1-34.4-20.64l34.4-19.86Zm0-50-34-19.65a45,45,0,0,1,34-20.08ZM95,50a44.86,44.86,0,0,1-4.75,20.15L54.69,49.62,89.94,29.26A44.81,44.81,0,0,1,95,50ZM52,5A45,45,0,0,1,87.13,24.56L52,44.87ZM52,95V54.36L87.5,74.88A45,45,0,0,1,52,95Z"/></g></g></svg>