<svg xmlns="http://www.w3.org/2000/svg" viewBox="0 0 100 100"><g id="Слой_2" data-name="Слой 2"><g id="Слой_1-2" data-name="Слой 1"><polygon points="79.38 23.71 55.28 47.81 93.74 47.81 93.74 76.97 89.36 76.97 89.36 52.19 55.28 52.19 79.38 76.29 82.47 79.38 79.38 82.47 61.85 100 58.76 96.91 76.29 79.38 52.19 55.28 52.19 93.74 23.03 93.74 23.03 89.37 47.81 89.37 47.81 55.28 23.71 79.38 20.62 82.47 17.53 79.38 0 61.85 3.09 58.76 20.62 76.29 44.72 52.19 6.26 52.19 6.26 23.03 10.63 23.03 10.63 47.81 44.72 47.81 20.62 23.71 17.53 20.62 38.15 0 41.24 3.09 23.71 20.62 47.81 44.72 47.81 6.26 76.97 6.26 76.97 10.64 52.19 10.64 52.19 44.72 79.38 17.53 82.47 20.62 100 38.15 96.91 41.24 79.38 23.71"/></g></g></svg>