<svg xmlns="http://www.w3.org/2000/svg" viewBox="0 0 360.74 360.74"><g id="Слой_2" data-name="Слой 2"><g id="Слой_1-2" data-name="Слой 1"><path d="M303.28,20.44,285.6,2.76,181.75,106.6,75.15,0,57.47,17.68l106.61,106.6-39.8,39.8L17.68,57.47,0,75.15l106.6,106.6L2.76,285.6l17.68,17.68L124.28,199.43l39.79,39.79L60.22,343.07,77.9,360.74,181.75,256.9,282.84,358l17.68-17.67L199.43,239.22l39.79-39.79,101.1,101.09L358,282.84,256.9,181.75,360.74,77.9,343.07,60.22,239.22,164.07l-39.79-39.79ZM221.54,181.75l-39.79,39.79L142,181.75,181.75,142Z"/></g></g></svg>