<svg xmlns="http://www.w3.org/2000/svg" viewBox="0 0 447.3 924.2"><defs><style>.cls-1{fill:#ad2b2b;}.cls-2{fill:#ea7171;}.cls-3,.cls-4{fill:#e03434;}.cls-3{stroke:#e03434;stroke-miterlimit:10;}.cls-5{fill:none;}.cls-6{fill:#a03d3d;}.cls-7{fill:#912727;}.cls-8{fill:#ce4949;}</style></defs><g id="Слой_2" data-name="Слой 2"><g id="Слой_1-2" data-name="Слой 1"><polygon points="33.63 660.4 33.58 660.4 33.58 660.36 33.61 660.38 33.63 660.4"/><polygon points="33.62 620.4 33.61 620.42 33.58 620.45 33.58 620.4 33.62 620.4"/><polygon class="cls-1" points="447.3 746.84 447.3 801.15 235.69 923.33 235.69 869.03 400.27 774 447.3 746.84"/><polygon class="cls-2" points="447.3 746.84 400.27 774 235.69 869.03 47.58 760.42 0.56 733.27 47.59 706.52 47.59 733.27 71.1 746.84 235.69 841.88 376.76 760.42 400.28 746.84 400.28 719.31 447.3 746.84"/><polygon class="cls-3" points="235.69 869.03 235.69 923.33 0.56 787.57 0.56 733.27 47.58 760.42 235.69 869.03"/><path class="cls-4" d="M47.59,353.64V733.27L71.1,746.84l164.59,95V462.24ZM178.44,624.3l14.75,17.35-5.2,3-77,24.42-.06-.07,0,0-20.76-9V516.17l5.2-3L116.05,522v68l62.39-19.79,14.75,17.36-5.2,3-71.94,22.8v30.62Z"/><polygon class="cls-5" points="178.44 624.3 193.19 641.65 187.99 644.66 110.95 669.08 110.89 669.01 110.85 669.04 90.09 660.05 90.09 516.17 95.29 513.15 116.05 522.03 116.05 590.07 178.44 570.28 193.19 587.64 187.99 590.66 116.05 613.46 116.05 644.08 178.44 624.3"/><path class="cls-1" d="M235.69,462.24V841.88l141.07-81.46,23.52-13.58V366.63ZM339.36,595.52v75.32l-10.86,6.28-10.26-5.41V596.43h0l-48.79-36.87,7.68-14.68,10.26,5.41,30.84,23.31V504.42h0l10.86-6.27,10.25,5.41h0V550l30.85-59,10.25,5.4,7.69,5.82Z"/><polygon class="cls-5" points="388.15 502.3 339.36 595.52 339.36 670.84 328.5 677.12 318.24 671.71 318.24 596.43 318.25 596.42 318.24 596.41 269.45 559.54 277.13 544.86 287.39 550.27 318.23 573.58 318.23 504.42 318.24 504.41 328.49 509.82 329.1 509.47 339.35 503.55 339.36 503.55 339.36 550.04 370.21 491.08 380.46 496.48 388.15 502.3"/><polygon class="cls-6" points="447.03 312.41 446.74 339.73 423.22 353.3 400.28 366.63 235.69 462.24 235.69 434.44 400.28 339.4 423.22 326.15 447.03 312.41"/><polygon class="cls-2" points="287.39 550.27 286.51 551.95 279.71 564.94 269.45 559.54 277.13 544.86 287.39 550.27"/><polygon class="cls-2" points="339.35 503.55 329.1 509.47 328.49 509.82 318.24 504.41 329.1 498.14 339.35 503.55"/><polygon class="cls-4" points="328.49 509.82 328.49 581.33 318.23 573.58 318.23 504.42 318.24 504.41 328.49 509.82"/><polygon class="cls-4" points="328.49 601.83 328.5 665.79 328.5 677.12 318.24 671.71 318.24 596.43 328.42 601.77 328.43 601.78 328.49 601.82 328.51 601.83 328.49 601.83"/><polygon class="cls-4" points="318.24 596.43 318.25 596.42 318.26 596.43 318.27 596.41 318.25 596.42 318.24 596.41 269.45 559.54 279.71 564.94 328.42 601.77 318.24 596.43"/><polygon class="cls-4" points="380.46 496.48 339.36 575.03 339.36 550.04 370.21 491.08 380.46 496.48"/><polygon class="cls-7" points="388.15 502.3 339.36 595.52 339.36 670.84 328.5 677.12 328.5 665.79 328.49 601.83 328.51 601.83 328.49 601.82 328.43 601.78 328.42 601.77 279.71 564.94 286.51 551.95 287.39 550.27 318.23 573.58 328.49 581.33 328.49 509.82 329.1 509.47 339.35 503.55 339.36 503.55 339.36 575.03 380.46 496.48 388.15 502.3"/><line class="cls-1" x1="328.52" y1="601.82" x2="328.43" y2="601.78"/><path class="cls-7" d="M116,666l.07,0V666Zm.07-21.91V613.46l-5.1,1.61-.1-.12v32.14l62.39-19.78,5.2-3Zm0-54V522l-5.2,3v68l62.39-19.78,5.2-3Z"/><polygon class="cls-7" points="193.19 587.64 187.99 590.66 187.07 589.58 173.24 573.3 178.44 570.28 193.19 587.64"/><polygon class="cls-7" points="193.19 641.65 187.99 644.66 187.07 643.59 187.06 643.58 173.24 627.31 178.44 624.3 193.19 641.65"/><path class="cls-5" d="M116,666l.07,0V666ZM95.4,549.12h0Zm0,0h0Z"/><path class="cls-2" d="M187.06,643.58l-13.82-16.27-62.39,19.78V615l.1.12,5.1-1.61L188,590.66l-.92-1.08L173.24,573.3l-62.39,19.78v-68L95.29,518.4l-5.2-2.23V660.05l20.76,9V669l0,0,.06.07,77-24.42-.92-1.07ZM90.22,552.14h0Zm5.2-3h0ZM116.05,666l-.07,0,.07,0Z"/><polygon class="cls-7" points="116.05 522.03 110.85 525.05 95.29 518.4 90.09 516.17 95.29 513.15 116.05 522.03"/><line class="cls-5" x1="116.05" y1="590.07" x2="110.85" y2="593.08"/><polyline class="cls-5" points="110.95 615.07 110.85 647.09 116.05 644.08"/><polygon class="cls-4" points="235.69 82.11 235.69 407.44 47.59 298.83 64.39 261.82 164.59 41.05 235.69 82.11"/><polygon class="cls-2" points="305.66 41.05 235.69 82.11 164.59 41.05 235.69 0 305.66 41.05"/><polygon class="cls-1" points="400.28 312.41 235.69 407.44 235.69 82.11 305.66 41.05 388.64 279.03 400.28 312.41"/><polygon class="cls-2" points="447.03 312.41 423.22 326.15 400.28 339.4 235.69 434.44 235.13 434.76 47.59 326.18 23.8 312.41 0 299 64.39 261.82 47.59 298.83 235.69 407.44 400.28 312.41 388.64 279.03 447.03 312.41"/><polygon class="cls-8" points="235.69 434.44 235.69 462.24 47.59 353.64 23.8 339.9 0 326.15 0 299 23.8 312.41 47.59 326.18 235.13 434.76 235.69 434.44"/><line class="cls-5" x1="339.36" y1="503.55" x2="339.35" y2="503.55"/></g></g></svg>